<svg xmlns="http://www.w3.org/2000/svg" xmlns:xlink="http://www.w3.org/1999/xlink" enable-background="new 0 0 40 40" viewBox="0 0 40 40"><linearGradient id="a" gradientTransform="matrix(.7071 -.7071 .7071 .7071 -8.2843 20)" gradientUnits="userSpaceOnUse" x1="-.043051" x2="39.957" y1="19.9572" y2="19.9572"><stop offset="0" stop-color="#feb703"/><stop offset=".5118" stop-color="#d54c98"/><stop offset="1" stop-color="#7a32ad"/></linearGradient><radialGradient id="b" cx="13.8975" cy="13.326" gradientTransform="matrix(1 0 0 -1 0 42)" gradientUnits="userSpaceOnUse" r="22.0131"><stop offset="0" stop-color="#ffb140"/><stop offset=".2559" stop-color="#ff5445"/><stop offset=".599" stop-color="#fc2b82"/><stop offset="1" stop-color="#8e40b7"/></radialGradient><circle cx="19.9" cy="20" fill="none" r="19.5" stroke="url(#a)"/><path d="m11.3 11.4h17.2v17.2h-17.2z" fill="none"/><path clip-rule="evenodd" d="m25.6 15.4c0 .6-.5 1-1 1-.6 0-1-.5-1-1s.5-1 1-1 1 .4 1 1zm-5.7 7.5c-1.6 0-2.9-1.3-2.9-2.9s1.3-2.9 2.9-2.9 2.9 1.3 2.9 2.9-1.3 2.9-2.9 2.9zm0-7.3c-2.4 0-4.4 2-4.4 4.4s2 4.4 4.4 4.4 4.4-2 4.4-4.4-1.9-4.4-4.4-4.4zm0-2.7c2.3 0 2.6 0 3.5.1.8 0 1.3.2 1.6.3.4.2.7.3 1 .6s.5.6.6 1c.1.3.3.8.3 1.6 0 .9.1 1.2.1 3.5s0 2.6-.1 3.5c0 .8-.2 1.3-.3 1.6-.2.4-.3.7-.6 1s-.6.5-1 .6c-.3.1-.8.3-1.6.3-.9 0-1.2.1-3.5.1s-2.6 0-3.5-.1c-.8 0-1.3-.2-1.6-.3-.4-.2-.7-.3-1-.6s-.5-.6-.6-1c-.1-.3-.3-.8-.3-1.6 0-.9-.1-1.2-.1-3.5s0-2.6.1-3.5c0-.8.2-1.3.3-1.6.2-.4.3-.7.6-1s.6-.5 1-.6c.3-.1.8-.3 1.6-.3 1-.1 1.2-.1 3.5-.1zm0-1.5c-2.3 0-2.6 0-3.6.1-.9 0-1.5.2-2.1.4s-1 .5-1.5 1-.8 1-1 1.5-.4 1.2-.4 2.1-.1 1.2-.1 3.6 0 2.6.1 3.6c0 .9.2 1.5.4 2.1s.5 1 1 1.5 1 .8 1.5 1 1.2.4 2.1.4 1.2.1 3.6.1 2.6 0 3.6-.1c.9 0 1.5-.2 2.1-.4s1-.5 1.5-1 .8-1 1-1.5.4-1.2.4-2.1.1-1.2.1-3.6 0-2.6-.1-3.6c0-.9-.2-1.5-.4-2.1s-.5-1-1-1.5-1-.8-1.5-1-1.2-.4-2.1-.4c-.9-.1-1.2-.1-3.6-.1z" fill="url(#b)" fill-rule="evenodd"/></svg>